# xmcd
#
# Track frame offsets:
#	150
#	13350
#	27825
#	41550
#	53550
#	71700
#	86700
#	99750
#	111750
#	123225
#	138000
#	151787
#
# Disc length: 2221 seconds
#
# Revision: 0
# Processed by: cddbd v1.5.2PL0 Copyright (c) Steve Scherf et al.
# Submitted via: EasyCDDAExtractor 16.0.6.1
#
DISCID=8f08ab0c
DTITLE=Συλλογικός δίσκος - Μεγάλοι ερμηνευτές
DYEAR=1995
DGENRE=Λαϊκή
TTITLE0=Καζαντζίδης Στέλιος - Η ζωή μου όλη [Ά. Πάνου]
TTITLE1=Αλεξίου Χάρις - Η αγάπη είναι ζάλη [Θ. Μικρούτσικου-Α. Μικρούτσικου]
TTITLE2=Μπιθικώτσης Γρηγόρης - Όταν σημάνει η ώρα [Ά. Πάνου]
TTITLE3=Μητσιάς Μανώλης - Στην Ελευσίνα μιά φορά [Δ. Μούτση-Β. Ανδρεόπουλου]
TTITLE4=Πάριος Γιάννης-Αλεξίου Χάρις - Κόκκινο γαρύφαλλο [Ν. Ιγνατιάδη]
TTITLE5=Βοσκόπουλος Τόλης - Πριν χαθεί το όνειρό μας [Τ. Βοσκόπουλου-Μ. Θειόπο
TTITLE5=υλου]
TTITLE6=Μοσχολιού Βίκυ - Τα τραίνα που φύγαν [Σ. Ξαρχάκου-Β. Γκούφα-Β. Ανδρεόπ
TTITLE6=ουλου]
TTITLE7=Γαλάνη Δήμητρα - Τα γαλάζια σου γράμματα [Γ. Χατζηνάσιου-Γ. Κανελλόπου
TTITLE7=λου]
TTITLE8=Πουλόπουλος Γιάννης - Μιά αγάπη για το καλοκαίρι [Γ. Σπανού-Γ. Παπαστε
TTITLE8=φάνου]
TTITLE9=Μπιθικώτσης Γρηγόρης - Άσπρη μέρα [Σ. Ξαρχάκου-Ν. Γκάτσου]
TTITLE10=Μαρινέλλα - Τολμώ [Α. Παπαδημητρίου-Ε. Δρούτσα]
TTITLE11=Μητροπάνος Δημήτρης - Σ' αναζητώ στη Σαλονίκη [Μ. Τόκα-Φ. Γράψα]
EXTD=
EXTT0=
EXTT1=
EXTT2=
EXTT3=
EXTT4=
EXTT5=
EXTT6=
EXTT7=
EXTT8=
EXTT9=
EXTT10=
EXTT11=
PLAYORDER=
